<svg width="22" height="20" viewBox="0 0 22 20" fill="none" xmlns="http://www.w3.org/2000/svg">
<path fill-rule="evenodd" clip-rule="evenodd" d="M20.4336 2.94036C20.8352 2.94036 21.1861 3.21495 21.2801 3.60531C21.3091 3.72831 21.9892 6.67389 20.0145 9.52034C18.6615 11.5409 16.3772 12.9594 13.2312 13.7676C12.5547 13.9412 12.0949 14.5657 12.0949 15.2642C12.0949 16.1271 12.8003 16.8325 13.6635 16.8325H13.8315C14.7906 16.8325 15.5677 17.61 15.5677 18.5691C15.5677 18.8887 15.3411 19.1479 15.0214 19.1479H6.91802C6.63084 19.1479 6.37174 18.8887 6.37174 18.5691C6.37174 17.61 7.14883 16.8325 8.1079 16.8325H8.27431C9.13896 16.8325 9.84442 16.1271 9.8437 15.265C9.8437 14.5664 9.38388 13.9421 8.70736 13.7683C5.56353 12.959 3.27856 11.5405 1.92407 9.52106C0.0146179 6.67389 0.695118 3.72831 0.724494 3.60531C0.81946 3.21495 1.1676 2.94036 1.56917 2.94036H5.21731C5.21521 2.85316 5.21257 2.76758 5.20998 2.68382V2.68382C5.1992 2.33497 5.1894 2.01767 5.22382 1.74578C5.24155 1.1181 5.75093 0.625 6.37861 0.625H15.6256C16.2551 0.625 16.7652 1.1181 16.7812 1.74578C16.7908 2.08296 16.7957 2.48995 16.7869 2.94036H20.4336ZM2.33308 4.67715C2.28352 5.53456 2.37252 7.08658 3.38332 8.57709C4.22951 9.82883 5.55361 10.8129 7.32631 11.5183C5.97689 9.42003 5.43422 6.83333 5.2414 4.67715H2.33308ZM13.9685 5.91744L12.6538 7.1945L12.9642 9.00266C12.9965 9.19176 12.7983 9.33574 12.6287 9.24657L11.0061 8.39386L9.38476 9.24577C9.21473 9.33622 9.01575 9.19151 9.04831 9.00338L9.35864 7.19523L8.0462 5.91744C7.90872 5.78358 7.98469 5.55204 8.17282 5.5231L9.9911 5.25741L10.8026 3.61387C10.8874 3.44202 11.1325 3.44202 11.2172 3.61387L12.0286 5.25741L13.8404 5.52209C14.03 5.54843 14.1059 5.78358 13.9685 5.91744ZM14.6778 11.5154C16.4527 10.8111 17.7732 9.82883 18.6212 8.57709C19.6306 7.09019 19.6884 5.53456 19.67 4.67715H16.7617C16.5699 6.83333 16.0273 9.42003 14.6778 11.5154Z" fill="#818FA3"/>
</svg>
