<svg width="22" height="22" viewBox="0 0 22 22" fill="none" xmlns="http://www.w3.org/2000/svg">
<path fill-rule="evenodd" clip-rule="evenodd" d="M20.1143 5.79134H18.3996C18.8862 4.85872 19.0103 3.73446 18.3979 2.47917C17.8112 1.27433 16.5579 0.582374 15.2111 0.583008C13.5103 0.583644 12.4116 1.45052 10.9997 3.36214C9.58773 1.45052 8.48909 0.583644 6.78825 0.583008C5.44141 0.582374 4.18896 1.27433 3.6014 2.47917C2.98901 3.73446 3.11312 4.85954 3.60018 5.79134H1.88509C1.1661 5.79134 0.583008 6.37443 0.583008 7.09343V9.69759C0.583008 10.4137 1.16895 10.9985 1.84847 10.9985H20.0776C20.7938 10.9985 21.3797 10.4137 21.3797 9.69759V7.09343C21.4163 6.37321 20.8345 5.79134 20.1143 5.79134ZM1.88509 20.1143C1.88509 20.8345 2.46737 21.4163 3.18717 21.4163H9.69759V12.3018H1.88509V20.1143ZM5.21765 4.16374C5.21765 5.06258 5.94641 5.79134 6.84526 5.79134H10.3487C8.25313 2.67041 7.65499 2.53613 6.84526 2.53613C5.94641 2.53613 5.21765 3.26489 5.21765 4.16374ZM15.1541 5.79134H11.6507C13.7463 2.67041 14.344 2.53613 15.1537 2.53613C16.0526 2.53613 16.7813 3.26489 16.7813 4.16374C16.7813 5.06258 16.0534 5.79134 15.1541 5.79134ZM18.8122 21.4163H12.3018L12.3384 12.3018H20.1143L20.1143 20.1143C20.1143 20.8345 19.532 21.4163 18.8122 21.4163Z" fill="#818FA3"/>
</svg>
