<svg xmlns="http://www.w3.org/2000/svg" version="1.1" xmlns:xlink="http://www.w3.org/1999/xlink" xmlns:svgjs="http://svgjs.com/svgjs" width="31" height="51"><svg width="31" height="51" viewBox="0 0 31 51" fill="none" xmlns="http://www.w3.org/2000/svg">
<path d="M4.32813 20.1141C4.32813 20.1141 4.36111 20.0568 4.39821 19.9995C5.29694 18.5517 8.10857 17.7828 8.70841 17.6233C9.82564 17.3329 10.7883 17.0813 12.1364 17.1263C13.1911 17.1265 14.2332 17.3532 15.1912 17.791C15.5313 17.9546 16.7867 18.5926 18.0771 20.5312C18.9861 21.8891 21.2205 25.2347 20.0538 27.6376C18.6645 30.5006 13.0104 30.7235 9.29382 29.1427C7.05318 28.1897 3.584 25.7623 3.62935 22.5251C3.65681 21.6763 3.89697 20.8477 4.32813 20.1141Z" fill="#B33224"></path>
<path d="M19.4971 38.9141C19.4971 38.9141 33.8046 44.3374 26.8291 49.6114C19.8537 54.8854 24.8895 43.7934 19.4971 38.9141Z" fill="#12B362"></path>
<path d="M16.2716 39.5625C16.2716 39.5625 21.3795 46.5809 16.5911 48.0083C11.8027 49.4357 17.3744 43.9429 16.2716 39.5625Z" fill="#2D12B3"></path>
<path d="M22.8516 38.5623C22.8516 38.5623 31.2122 36.0837 30.9958 41.0388C30.7794 45.9938 27.3844 38.9692 22.8516 38.5623Z" fill="#B33224"></path>
<path d="M21.983 27.9363C21.9859 27.9442 21.9859 27.9529 21.983 27.9608C21.983 27.9874 21.983 28.0181 21.9727 28.0447C21.9624 28.0713 21.9562 28.1388 21.9459 28.1858C21.9356 28.2328 21.9171 28.3064 21.9006 28.3658C21.8841 28.4251 21.8697 28.4639 21.8511 28.5089C21.8511 28.5089 21.8511 28.5314 21.8511 28.5396C22.4695 27.1081 21.9913 25.3003 20.6288 24.0631C20.6589 24.089 20.6872 24.117 20.7133 24.1469C21.2081 24.648 21.5952 25.2436 21.8511 25.8974C22.0663 26.5367 22.1194 27.2187 22.0057 27.8831C21.9994 27.9014 21.9918 27.9191 21.983 27.9363ZM19.6826 16.0958C20.2618 15.2921 20.9359 14.3903 21.7171 13.376C20.9342 14.2006 20.2514 15.1135 19.6826 16.0958Z" fill="#FF9933"></path>
<path d="M20.5859 20.1095C20.9981 17.8334 31.5108 11.4183 30.8924 4.38351C30.4946 -0.092977 27.2254 0.293526 24.8981 1.1606C24.2519 1.40387 23.5632 1.51704 22.8724 1.49352C22.1816 1.47 21.5024 1.31025 20.8745 1.02359C19.9634 0.614589 18.5802 0.205591 16.5004 0.0460821C2.77825 -1.05003 0.859172 21.7639 0.859172 21.7639C2.00526 26.0052 0.545853 27.2465 0.129469 30.1483C-1.37735 40.6023 10.7658 37.1831 10.7658 37.1831C10.7658 37.1831 15.8758 37.907 19.6294 37.4919C33.1413 35.9929 20.1695 22.3855 20.5859 20.1095ZM20.6147 24.0686C21.9773 25.2956 22.4472 27.1197 21.8371 28.5451V28.5635C21.7058 28.9559 21.4954 29.3177 21.2187 29.6269C20.7235 30.166 20.0639 30.5294 19.3409 30.6616C16.6776 31.1647 13.0848 30.6616 13.0848 30.6616C11.1863 30.543 7.31313 30.0318 5.7857 27.3508C5.78653 27.3467 5.78653 27.3426 5.7857 27.3385C5.55071 26.9888 5.57957 26.9438 5.57957 26.9295C5.49013 26.7325 5.42106 26.5269 5.37344 26.316C5.2683 26.201 5.197 26.0595 5.1673 25.907C5.10959 25.5676 5.33221 25.3692 5.37344 24.8723C5.38544 24.7362 5.38544 24.5993 5.37344 24.4633C4.94881 23.6984 4.48089 22.9377 3.96556 22.1872C3.94495 22.1545 3.92227 22.1238 3.8996 22.0911C3.8996 22.0911 7.19769 15.2363 10.2196 11.541C11.4296 10.0584 12.5983 9.08698 13.4929 9.26285C13.831 9.32829 14.1979 9.406 14.5916 9.48575L15.21 9.60845L15.8469 9.73115C16.1376 9.78637 16.4365 9.83954 16.7374 9.88862L17.1971 9.96428C17.428 9.99905 17.6629 10.0318 17.8979 10.0624C17.9763 10.0727 18.0567 10.0808 18.135 10.0931L18.6091 10.1463C19.7044 10.2708 20.8098 10.281 21.9072 10.177C21.9999 10.177 22.0906 10.1565 22.1813 10.1422L22.4184 10.1074L22.674 10.0604C23.0031 9.99905 23.3275 9.915 23.6449 9.80886C23.7933 9.75774 23.9396 9.70252 24.0819 9.64322L24.2282 9.57982C24.3663 9.51438 24.5024 9.4469 24.6405 9.37533C24.8944 9.21901 25.1332 9.03964 25.3537 8.83954C25.5598 10.0829 23.6861 12.9786 23.6861 12.9786C23.0379 13.1646 22.3764 13.3013 21.7072 13.3876C20.926 14.4101 20.252 15.3038 19.6727 16.1074C16.0118 21.1872 16.1108 22.271 16.4159 22.5921C16.4313 22.6076 16.4478 22.6219 16.4653 22.635L16.3973 22.4878C17.7804 22.466 19.1305 22.9077 20.2293 23.7414C20.2994 23.7925 20.3653 23.8457 20.4354 23.9009C20.4354 23.9009 20.4849 23.9418 20.5323 23.9868L20.6147 24.0686Z" fill="#FF9933"></path>
<path d="M21.7171 13.376C20.9359 14.3985 20.2618 15.2921 19.6826 16.0958C20.2514 15.1135 20.9342 14.2006 21.7171 13.376Z" fill="#FF9933"></path>
<path d="M23.7047 12.9697C23.0565 13.1557 22.395 13.2925 21.7258 13.3787C16.7828 14.027 11.7491 12.162 10.2031 11.5239C11.4131 10.0413 12.5819 9.06995 13.4765 9.24582C13.8145 9.31126 14.1814 9.38897 14.5752 9.46872L15.1936 9.59142L15.8305 9.71412C16.1211 9.76934 16.42 9.82251 16.721 9.87159L17.1807 9.94725C17.4115 9.98202 17.6465 10.0147 17.8815 10.0454C17.9598 10.0556 18.0402 10.0638 18.1185 10.0761L18.5926 10.1293C19.6879 10.2537 20.7933 10.264 21.8907 10.1599C21.9835 10.1599 22.0742 10.1395 22.1649 10.1252L22.4019 10.0904L22.6575 10.0434C22.9867 9.98202 23.3111 9.89797 23.6284 9.79183C23.7768 9.74071 23.9232 9.68549 24.0654 9.62619L24.2118 9.56279C24.3499 9.4994 24.4859 9.43191 24.624 9.35829C24.883 9.20801 25.1273 9.03412 25.3537 8.83887C25.5722 10.074 23.7047 12.9697 23.7047 12.9697Z" fill="#FF9933"></path>
<path d="M21.7171 13.376C20.9359 14.3985 20.2618 15.2921 19.6826 16.0958C20.2514 15.1135 20.9342 14.2006 21.7171 13.376Z" fill="#110066"></path>
<path d="M25.3537 8.83887C24.4612 9.90635 23.1894 11.4585 21.7135 13.3767C16.7828 14.027 11.7491 12.162 10.2031 11.5239C11.4131 10.0413 12.5819 9.06995 13.4765 9.24582C13.8145 9.31126 14.1814 9.38897 14.5752 9.46872L15.1936 9.59142L15.8305 9.71412C16.1211 9.76934 16.42 9.82251 16.721 9.87159L17.1807 9.94725C17.4115 9.98202 17.6465 10.0147 17.8815 10.0454C17.9598 10.0556 18.0402 10.0638 18.1185 10.0761L18.5926 10.1293C19.6879 10.2537 20.7933 10.264 21.8907 10.1599C21.9835 10.1599 22.0742 10.1395 22.1649 10.1252L22.4019 10.0904L22.6575 10.0434C22.9867 9.98202 23.3111 9.89797 23.6284 9.79183C23.7768 9.74071 23.9232 9.68549 24.0654 9.62619L24.2118 9.56279C24.3499 9.4994 24.4859 9.43191 24.624 9.35829C24.883 9.20801 25.1273 9.03412 25.3537 8.83887Z" fill="#110066"></path>
<path d="M24.0916 12.667C23.4189 12.892 22.7297 13.0657 22.0303 13.1864C16.844 14.0801 11.4579 12.2703 9.80469 11.6282C11.0209 9.97785 12.2144 8.87765 13.1646 9.03511L14.3334 9.23961L14.9765 9.348L15.6547 9.45843C15.9639 9.50546 16.2731 9.5525 16.6008 9.59339L17.0873 9.65679C17.3319 9.68542 17.5792 9.712 17.8294 9.73654L18.0829 9.75904C18.2478 9.77335 18.4148 9.78767 18.5838 9.79789C19.7411 9.88857 20.905 9.85497 22.055 9.69769C22.1519 9.68337 22.2467 9.66906 22.3416 9.64861L22.591 9.60157C22.6817 9.58317 22.7703 9.56476 22.8569 9.54227C23.2026 9.46243 23.5421 9.35856 23.8731 9.23143C24.0256 9.17008 24.1782 9.10669 24.3245 9.02693C24.3761 9.00239 24.4276 8.9799 24.4771 8.95331C24.6145 8.87833 24.7519 8.79858 24.8893 8.71405C25.1643 8.54125 25.4224 8.34339 25.6603 8.12305C25.953 9.46047 24.0916 12.667 24.0916 12.667Z" fill="white"></path>
<path d="M16.4655 22.6336C16.448 22.6204 16.4315 22.6061 16.416 22.5906L16.3975 22.4863L16.4655 22.6336Z" fill="white"></path>
<path d="M21.9913 27.8874C21.9923 27.9038 21.9923 27.9202 21.9913 27.9365C21.9941 27.9445 21.9941 27.9531 21.9913 27.9611C21.9607 28.1467 21.9166 28.3298 21.8594 28.5091C21.8594 28.5091 21.8594 28.5316 21.8594 28.5398V28.5582C21.728 28.9506 21.5177 29.3124 21.241 29.6216C21.0831 29.7966 20.9061 29.9537 20.7133 30.0899C20.3083 30.3707 19.8483 30.5637 19.3631 30.6564C13.7007 31.8322 8.72678 29.8281 8.72678 29.8281C8.01729 29.5251 7.35123 29.1304 6.74587 28.6543C6.56083 28.5065 6.38656 28.3459 6.22436 28.1737C5.87793 27.8106 5.59881 27.3897 5.39983 26.9304C5.33175 26.7697 5.27325 26.6051 5.22462 26.4376C5.22365 26.4342 5.22365 26.4307 5.22462 26.4273C5.08274 25.7826 5.12776 25.1112 5.35448 24.4907C5.91516 24.8043 6.46072 25.0899 6.99116 25.3476C7.266 25.4839 7.54084 25.6127 7.81568 25.7341C8.08159 25.8547 8.34544 25.9713 8.6031 26.0797L8.77213 26.1492C9.22974 26.3374 9.67292 26.5064 10.1017 26.6564C10.5799 26.8241 11.0437 26.9692 11.4889 27.0919C11.7116 27.1574 11.928 27.2126 12.1403 27.2637C12.3526 27.3149 12.5629 27.3639 12.7587 27.4069C12.9545 27.4498 13.171 27.4887 13.3544 27.5234C16.298 28.0408 18.753 27.5521 19.7939 26.5173C20.4639 25.8527 20.2474 24.8977 20.2062 24.6543C20.2253 24.8736 20.1979 25.0944 20.1258 25.3026C19.7981 26.2433 18.6499 26.4948 18.5365 26.5173C18.3337 26.5693 18.121 26.5693 17.9182 26.5173C17.712 26.46 17.5595 26.3517 17.0936 25.9038C16.9225 25.7402 16.7102 25.5296 16.4752 25.2903C16.1796 24.4179 16.1796 23.4735 16.4752 22.6012C16.4907 22.6166 16.5072 22.631 16.5247 22.6441L16.4567 22.4969C17.8398 22.4751 19.1899 22.9167 20.2887 23.7504C20.3587 23.8036 20.4268 23.8568 20.4948 23.9099C20.4948 23.9099 20.5443 23.9508 20.5917 23.9958L20.6782 24.0776C20.7084 24.1035 20.7367 24.1315 20.7628 24.1615C21.2576 24.6626 21.6447 25.2581 21.9006 25.912C22.0928 26.5533 22.1239 27.2315 21.9913 27.8874Z" fill="white"></path>
<path opacity="0.4" d="M7.66309 17.9366C9.02996 18.9332 10.2551 20.108 11.3054 21.4295C12.5077 22.9418 13.4691 24.6281 14.1562 26.4295C14.034 24.9053 13.5857 23.4246 12.8411 22.0859C11.7906 20.2279 10.2139 18.7163 8.30621 17.7383L7.66309 17.9366Z" fill="#AF473F"></path>
</svg><style>@media (prefers-color-scheme: light) { :root { filter: none; } }
</style></svg>