<svg width="22" height="22" viewBox="0 0 22 22" fill="none" xmlns="http://www.w3.org/2000/svg">
<path fill-rule="evenodd" clip-rule="evenodd" d="M20.1146 5.79165H18.3999C18.8866 4.85903 19.0107 3.73476 18.3983 2.47947C17.8115 1.27464 16.5583 0.582679 15.2114 0.583313C13.5106 0.583949 12.412 1.45083 11 3.36245C9.58806 1.45083 8.48943 0.583949 6.78858 0.583313C5.44174 0.582679 4.1893 1.27464 3.60174 2.47947C2.98935 3.73476 3.11345 4.85984 3.60051 5.79165H1.88543C1.16643 5.79165 0.583344 6.37474 0.583344 7.09373V9.6979C0.583344 10.414 1.16928 10.9988 1.84881 10.9988H20.078C20.7941 10.9988 21.3801 10.414 21.3801 9.6979V7.09373C21.4167 6.37352 20.8348 5.79165 20.1146 5.79165ZM1.88543 20.1146C1.88543 20.8348 2.4677 21.4166 3.18751 21.4166H9.69793V12.3021H1.88543V20.1146ZM5.21799 4.16404C5.21799 5.06289 5.94675 5.79165 6.84559 5.79165H10.349C8.25347 2.67071 7.65532 2.53644 6.84559 2.53644C5.94675 2.53644 5.21799 3.2652 5.21799 4.16404ZM15.1545 5.79165H11.6511C13.7466 2.67071 14.3443 2.53644 15.1541 2.53644C16.0529 2.53644 16.7817 3.2652 16.7817 4.16404C16.7817 5.06289 16.0537 5.79165 15.1545 5.79165ZM18.8125 21.4166H12.3021L12.3387 12.3021H20.1146L20.1146 20.1146C20.1146 20.8348 19.5323 21.4166 18.8125 21.4166Z" fill="#FA4A0C"/>
</svg>
