<svg width="31" height="51" viewBox="0 0 31 51" fill="none" xmlns="http://www.w3.org/2000/svg">
<path d="M4.32813 20.1145C4.32813 20.1145 4.36111 20.0573 4.39821 20C5.29694 18.5522 8.10857 17.7833 8.70841 17.6238C9.82564 17.3334 10.7883 17.0818 12.1364 17.1268C13.1911 17.127 14.2332 17.3537 15.1912 17.7914C15.5313 17.955 16.7867 18.5931 18.0771 20.5317C18.9861 21.8896 21.2205 25.2352 20.0538 27.6381C18.6645 30.501 13.0104 30.7239 9.29382 29.1432C7.05318 28.1902 3.584 25.7628 3.62935 22.5256C3.65681 21.6768 3.89697 20.8482 4.32813 20.1145Z" fill="#B33224"/>
<path d="M19.4971 38.9141C19.4971 38.9141 33.8046 44.3374 26.8291 49.6114C19.8537 54.8854 24.8895 43.7934 19.4971 38.9141Z" fill="#12B362"/>
<path d="M16.2716 39.5625C16.2716 39.5625 21.3795 46.5809 16.5911 48.0083C11.8027 49.4357 17.3744 43.9429 16.2716 39.5625Z" fill="#2D12B3"/>
<path d="M22.8516 38.5623C22.8516 38.5623 31.2122 36.0837 30.9958 41.0388C30.7794 45.9938 27.3844 38.9692 22.8516 38.5623Z" fill="#B33224"/>
<path d="M21.983 27.9368C21.9859 27.9447 21.9859 27.9534 21.983 27.9613C21.983 27.9879 21.983 28.0186 21.9727 28.0452C21.9624 28.0718 21.9562 28.1392 21.9459 28.1863C21.9356 28.2333 21.9171 28.3069 21.9006 28.3662C21.8841 28.4255 21.8697 28.4644 21.8511 28.5094C21.8511 28.5094 21.8511 28.5319 21.8511 28.5401C22.4695 27.1086 21.9913 25.3008 20.6288 24.0636C20.6589 24.0895 20.6872 24.1175 20.7133 24.1474C21.2081 24.6485 21.5952 25.244 21.8511 25.8979C22.0663 26.5372 22.1194 27.2192 22.0057 27.8836C21.9994 27.9019 21.9918 27.9196 21.983 27.9368V27.9368ZM19.6826 16.0963C20.2618 15.2926 20.9359 14.3908 21.7171 13.3765C20.9342 14.2011 20.2514 15.114 19.6826 16.0963V16.0963Z" fill="#FF9933"/>
<path d="M20.5859 20.1095C20.9981 17.8334 31.5108 11.4183 30.8924 4.38351C30.4946 -0.092977 27.2254 0.293526 24.8981 1.1606C24.2519 1.40387 23.5632 1.51704 22.8724 1.49352C22.1816 1.47 21.5024 1.31025 20.8745 1.02359C19.9634 0.614589 18.5802 0.205591 16.5004 0.0460821C2.77825 -1.05003 0.859172 21.7639 0.859172 21.7639C2.00526 26.0052 0.545853 27.2465 0.129469 30.1483C-1.37735 40.6023 10.7658 37.1831 10.7658 37.1831C10.7658 37.1831 15.8758 37.907 19.6294 37.4919C33.1413 35.9929 20.1695 22.3855 20.5859 20.1095ZM20.6147 24.0686C21.9773 25.2956 22.4472 27.1197 21.8371 28.5451V28.5635C21.7058 28.9559 21.4954 29.3177 21.2187 29.6269C20.7235 30.166 20.0639 30.5294 19.3409 30.6616C16.6776 31.1647 13.0848 30.6616 13.0848 30.6616C11.1863 30.543 7.31312 30.0318 5.7857 27.3508C5.78653 27.3467 5.78653 27.3426 5.7857 27.3385C5.55071 26.9888 5.57957 26.9438 5.57957 26.9295C5.49013 26.7325 5.42106 26.5269 5.37343 26.316C5.2683 26.201 5.197 26.0595 5.1673 25.907C5.10959 25.5676 5.33221 25.3692 5.37343 24.8723C5.38544 24.7362 5.38544 24.5993 5.37343 24.4633C4.94881 23.6984 4.48089 22.9377 3.96556 22.1872C3.94495 22.1545 3.92227 22.1238 3.8996 22.0911C3.8996 22.0911 7.19769 15.2363 10.2196 11.541C11.4296 10.0584 12.5983 9.08698 13.4929 9.26285C13.831 9.32829 14.1979 9.406 14.5916 9.48575L15.21 9.60845L15.8469 9.73115C16.1376 9.78637 16.4365 9.83954 16.7374 9.88862L17.1971 9.96428C17.428 9.99905 17.6629 10.0318 17.8979 10.0624C17.9763 10.0727 18.0567 10.0808 18.135 10.0931L18.6091 10.1463C19.7044 10.2708 20.8098 10.281 21.9072 10.177C21.9999 10.177 22.0906 10.1565 22.1813 10.1422L22.4184 10.1074L22.674 10.0604C23.0031 9.99905 23.3275 9.915 23.6449 9.80886C23.7933 9.75774 23.9396 9.70252 24.0819 9.64322L24.2282 9.57982C24.3663 9.51438 24.5024 9.4469 24.6405 9.37533C24.8944 9.21901 25.1332 9.03964 25.3537 8.83954V8.83954C25.5598 10.0829 23.6861 12.9786 23.6861 12.9786C23.0379 13.1646 22.3764 13.3013 21.7072 13.3876C20.926 14.4101 20.252 15.3038 19.6727 16.1074C16.0118 21.1872 16.1108 22.271 16.4159 22.5921C16.4313 22.6076 16.4478 22.6219 16.4653 22.635L16.3973 22.4878C17.7804 22.466 19.1305 22.9077 20.2293 23.7414C20.2994 23.7925 20.3653 23.8457 20.4354 23.9009C20.4354 23.9009 20.4849 23.9418 20.5323 23.9868L20.6147 24.0686Z" fill="#FF9933"/>
<path d="M21.7171 13.3765C20.9359 14.399 20.2618 15.2926 19.6826 16.0963C20.2514 15.114 20.9342 14.2011 21.7171 13.3765Z" fill="#FF9933"/>
<path d="M23.7047 12.9693C23.0565 13.1552 22.395 13.292 21.7258 13.3783C16.7828 14.0265 11.7491 12.1615 10.2031 11.5235C11.4131 10.0408 12.5819 9.06946 13.4765 9.24533C13.8145 9.31077 14.1814 9.38848 14.5752 9.46824L15.1936 9.59094L15.8305 9.71363C16.1211 9.76885 16.42 9.82202 16.721 9.8711L17.1807 9.94676C17.4115 9.98153 17.6465 10.0142 17.8815 10.0449C17.9598 10.0551 18.0402 10.0633 18.1185 10.0756L18.5926 10.1288C19.6879 10.2532 20.7933 10.2635 21.8907 10.1594C21.9835 10.1594 22.0742 10.139 22.1649 10.1247L22.4019 10.0899L22.6575 10.0429C22.9867 9.98153 23.3111 9.89749 23.6284 9.79134C23.7768 9.74022 23.9232 9.685 24.0654 9.6257L24.2118 9.5623C24.3499 9.49891 24.4859 9.43143 24.624 9.35781C24.883 9.20752 25.1273 9.03363 25.3537 8.83838C25.5722 10.0736 23.7047 12.9693 23.7047 12.9693Z" fill="#FF9933"/>
<path d="M21.7171 13.3765C20.9359 14.399 20.2618 15.2926 19.6826 16.0963C20.2514 15.114 20.9342 14.2011 21.7171 13.3765Z" fill="#110066"/>
<path d="M25.3537 8.83838C24.4612 9.90586 23.1894 11.458 21.7135 13.3762C16.7828 14.0265 11.7491 12.1615 10.2031 11.5234C11.4131 10.0408 12.5819 9.06946 13.4765 9.24533C13.8145 9.31077 14.1814 9.38848 14.5752 9.46824L15.1936 9.59093L15.8305 9.71363C16.1211 9.76885 16.42 9.82202 16.721 9.8711L17.1807 9.94676C17.4115 9.98153 17.6465 10.0142 17.8815 10.0449C17.9598 10.0551 18.0402 10.0633 18.1185 10.0756L18.5926 10.1288C19.6879 10.2532 20.7933 10.2635 21.8907 10.1594C21.9835 10.1594 22.0742 10.139 22.1649 10.1247L22.4019 10.0899L22.6575 10.0429C22.9867 9.98153 23.3111 9.89749 23.6284 9.79134C23.7768 9.74022 23.9232 9.685 24.0654 9.6257L24.2118 9.5623C24.3499 9.49891 24.4859 9.43143 24.624 9.35781C24.883 9.20752 25.1273 9.03363 25.3537 8.83838Z" fill="#110066"/>
<path d="M24.0916 12.6665C23.4189 12.8916 22.7297 13.0652 22.0303 13.186C16.844 14.0796 11.4579 12.2698 9.80469 11.6277C11.0209 9.97736 12.2144 8.87716 13.1646 9.03462L14.3334 9.23912L14.9765 9.34751L15.6547 9.45794C15.9639 9.50497 16.2731 9.55201 16.6008 9.59291L17.0873 9.6563C17.3319 9.68493 17.5792 9.71152 17.8294 9.73606L18.0829 9.75855C18.2478 9.77287 18.4148 9.78718 18.5838 9.79741C19.7411 9.88808 20.905 9.85449 22.055 9.6972C22.1519 9.68289 22.2467 9.66857 22.3416 9.64812L22.591 9.60109C22.6817 9.58268 22.7703 9.56428 22.8569 9.54178C23.2026 9.46194 23.5421 9.35807 23.8731 9.23094C24.0256 9.16959 24.1782 9.1062 24.3245 9.02644C24.3761 9.0019 24.4276 8.97941 24.4771 8.95282C24.6145 8.87784 24.7519 8.79809 24.8893 8.71356C25.1643 8.54076 25.4224 8.3429 25.6603 8.12256C25.953 9.45998 24.0916 12.6665 24.0916 12.6665Z" fill="white"/>
<path d="M16.4655 22.6341C16.448 22.6209 16.4315 22.6066 16.416 22.5911L16.3975 22.4868L16.4655 22.6341Z" fill="white"/>
<path d="M21.9913 27.8874C21.9923 27.9038 21.9923 27.9202 21.9913 27.9365C21.9941 27.9445 21.9941 27.9531 21.9913 27.9611C21.9607 28.1467 21.9166 28.3298 21.8594 28.5091C21.8594 28.5091 21.8594 28.5316 21.8594 28.5398V28.5582C21.728 28.9506 21.5177 29.3124 21.241 29.6216C21.0831 29.7966 20.9061 29.9537 20.7133 30.0899C20.3083 30.3707 19.8483 30.5637 19.3631 30.6564C13.7007 31.8322 8.72678 29.8281 8.72678 29.8281C8.01729 29.5251 7.35123 29.1304 6.74587 28.6543C6.56083 28.5065 6.38656 28.3459 6.22436 28.1737C5.87793 27.8106 5.59881 27.3897 5.39983 26.9304C5.33175 26.7697 5.27325 26.6051 5.22462 26.4376C5.22365 26.4342 5.22365 26.4307 5.22462 26.4273C5.08274 25.7826 5.12776 25.1112 5.35448 24.4907C5.91516 24.8043 6.46072 25.0899 6.99116 25.3476C7.266 25.4839 7.54084 25.6127 7.81568 25.7341C8.08159 25.8547 8.34544 25.9713 8.6031 26.0797L8.77213 26.1492C9.22974 26.3374 9.67292 26.5064 10.1017 26.6564C10.5799 26.8241 11.0437 26.9692 11.4889 27.0919C11.7116 27.1574 11.928 27.2126 12.1403 27.2637C12.3526 27.3149 12.5629 27.3639 12.7587 27.4069C12.9545 27.4498 13.171 27.4887 13.3544 27.5234C16.298 28.0408 18.753 27.5521 19.7939 26.5173C20.4639 25.8527 20.2474 24.8977 20.2062 24.6543C20.2253 24.8736 20.1979 25.0944 20.1258 25.3026C19.7981 26.2433 18.6499 26.4948 18.5365 26.5173C18.3337 26.5693 18.121 26.5693 17.9182 26.5173C17.712 26.46 17.5595 26.3517 17.0936 25.9038C16.9225 25.7402 16.7102 25.5296 16.4752 25.2903C16.1796 24.4179 16.1796 23.4735 16.4752 22.6012C16.4907 22.6166 16.5072 22.631 16.5247 22.6441L16.4567 22.4969C17.8398 22.4751 19.1899 22.9167 20.2887 23.7504C20.3587 23.8036 20.4268 23.8568 20.4948 23.9099C20.4948 23.9099 20.5443 23.9508 20.5917 23.9958L20.6782 24.0776C20.7084 24.1035 20.7367 24.1315 20.7628 24.1615C21.2576 24.6626 21.6447 25.2581 21.9006 25.912C22.0928 26.5533 22.1239 27.2315 21.9913 27.8874Z" fill="white"/>
<path opacity="0.4" d="M7.66309 17.9366C9.02996 18.9332 10.2551 20.108 11.3054 21.4295C12.5077 22.9418 13.4691 24.6281 14.1562 26.4295C14.034 24.9053 13.5857 23.4246 12.8411 22.0859C11.7906 20.2279 10.2139 18.7163 8.30621 17.7383L7.66309 17.9366Z" fill="#AF473F"/>
</svg>